<svg width="286" height="175" viewBox="0 0 286 175" fill="none" xmlns="http://www.w3.org/2000/svg">
<path d="M17.4392 157.94H4.89926L3.17647 139.445H19.162L17.4392 157.94Z" fill="#C6D0D6"/>
<path d="M4.73757 63.9856C4.00869 64.7104 4.67545 66.4 6.12905 67.866C7.58266 69.3321 9.26404 70.0195 9.99705 69.2948C10.7301 68.5701 10.0592 66.8763 8.60971 65.4102C7.16024 63.9442 5.47058 63.2609 4.73757 63.9856Z" fill="#FFCD32"/>
<path d="M12.2996 69.299C13.0244 70.032 14.714 69.3652 16.1801 67.9116C17.6461 66.458 18.3336 64.7725 17.6088 64.0436C16.8841 63.3147 15.1903 63.9774 13.7243 65.431C12.2582 66.8846 11.5749 68.5701 12.2996 69.299Z" fill="#FFCD32"/>
<path d="M4.73757 72.9475C4.00869 73.6722 4.67545 75.3619 6.12905 76.8279C7.58266 78.2939 9.26404 78.9814 9.99705 78.2525C10.7301 77.5236 10.0592 75.8381 8.60971 74.3721C7.16024 72.9061 5.47058 72.2227 4.73757 72.9475Z" fill="#FFCD32"/>
<path d="M13.7243 74.3969C12.2582 75.8464 11.5749 77.5319 12.2996 78.2649C13.0244 78.9979 14.714 78.327 16.1801 76.8776C17.6461 75.4281 18.3336 73.7384 17.6088 73.0054C16.8841 72.2724 15.1903 72.9433 13.7243 74.3969Z" fill="#FFCD32"/>
<path d="M4.73757 81.9093C4.00869 82.634 4.67545 84.3237 6.12905 85.7897C7.58266 87.2558 9.26404 87.9432 9.99705 87.2143C10.7301 86.4855 10.0592 84.8 8.60971 83.3339C7.16024 81.8679 5.47058 81.1804 4.73757 81.9093Z" fill="#FFCD32"/>
<path d="M13.7243 83.3794C12.2582 84.8289 11.5749 86.5144 12.2996 87.2474C13.0244 87.9804 14.714 87.3096 16.1801 85.8601C17.6461 84.4106 18.3336 82.721 17.6088 81.988C16.8841 81.2549 15.1903 81.9051 13.7243 83.3794Z" fill="#FFCD32"/>
<path d="M11.2106 56.5105C10.1795 56.5105 9.45472 58.1671 9.44644 60.2377C9.43816 62.3084 10.1422 63.9649 11.1734 63.9649C12.2046 63.9649 12.9293 62.3084 12.9376 60.2377C12.9459 58.1671 12.2418 56.5188 11.2106 56.5105Z" fill="#FFCD32"/>
<path d="M11.4298 64.8512H10.9122V148.655H11.4298V64.8512Z" fill="#0083AF"/>
<path d="M20.1762 141.669H2.1614L1.72656 137.01H20.611L20.1762 141.669ZM2.63351 141.151H19.7041L20.0436 137.527H2.29393L2.63351 141.151Z" fill="#0083AF"/>
<path d="M275.116 43.9416H262.577L260.854 31.1408H276.839L275.116 43.9416Z" fill="#C6D0D6"/>
<path d="M262.415 10.2933C261.687 11.0222 262.353 12.7119 263.807 14.1779C265.26 15.6439 266.942 16.3272 267.675 15.6025C268.408 14.8778 267.737 13.1881 266.288 11.7221C264.838 10.2561 263.148 9.56859 262.415 10.2933Z" fill="#C4D7FF"/>
<path d="M269.977 15.6149C270.702 16.3479 272.392 15.677 273.858 14.2276C275.324 12.7781 276.011 11.0884 275.287 10.3554C274.562 9.62241 272.868 10.2933 271.402 11.7428C269.936 13.1922 269.253 14.8819 269.977 15.6149Z" fill="#C4D7FF"/>
<path d="M262.415 19.2552C261.687 19.9799 262.353 21.6737 263.807 23.1397C265.26 24.6058 266.942 25.2891 267.675 24.5644C268.408 23.8396 267.737 22.1458 266.288 20.6798C264.838 19.2138 263.148 18.5304 262.415 19.2552Z" fill="#C4D7FF"/>
<path d="M271.402 20.7046C269.936 22.1582 269.253 23.8437 269.977 24.5768C270.702 25.3098 272.392 24.6389 273.858 23.1853C275.324 21.7317 276.011 20.0503 275.287 19.3173C274.562 18.5843 272.868 19.2552 271.402 20.7046Z" fill="#C4D7FF"/>
<path d="M268.896 2.82236C267.865 2.82236 267.14 4.47889 267.132 6.54955C267.124 8.62022 267.828 10.2767 268.859 10.2767C269.89 10.2767 270.615 8.62022 270.623 6.54955C270.632 4.47889 269.919 2.8265 268.896 2.82236Z" fill="#C4D7FF"/>
<path d="M269.108 11.163H268.59V40.3552H269.108V11.163Z" fill="#0083AF"/>
<path d="M277.854 33.8823H259.839L259.425 29.2233H278.309L277.854 33.8823ZM260.311 33.3647H277.382L277.721 29.741H259.972L260.311 33.3647Z" fill="#0083AF"/>
<path d="M283.987 42.3762H253.706V44.2812H283.987V42.3762Z" fill="#C6D0D6"/>
<path d="M280.293 43.2005L277.056 47.9855L277.485 48.2755L280.722 43.4906L280.293 43.2005Z" fill="#C6D0D6"/>
<path d="M277.39 43.5068H276.873V51.2262H277.39V43.5068Z" fill="#C6D0D6"/>
<path d="M257.409 43.1686L256.98 43.4584L260.215 48.2451L260.644 47.9552L257.409 43.1686Z" fill="#C6D0D6"/>
<path d="M260.825 43.5068H260.307V51.2262H260.825V43.5068Z" fill="#C6D0D6"/>
<path d="M201.976 85.1271C201.951 85.0513 201.942 84.9711 201.95 84.8915C201.957 84.812 201.981 84.735 202.02 84.6653C202.059 84.5955 202.112 84.5347 202.176 84.4866C202.24 84.4385 202.313 84.4041 202.391 84.3858C202.391 84.3858 200.763 84.8579 200.581 84.2201C200.432 83.7107 201.032 83.3919 201.032 83.3919C201.032 83.3919 199.632 83.806 199.446 83.1599C199.26 82.5139 200.664 82.1205 200.664 82.1205C200.579 82.1457 200.491 82.154 200.403 82.1447C200.316 82.1354 200.231 82.1088 200.154 82.0664C200.077 82.024 200.009 81.9666 199.954 81.8977C199.9 81.8288 199.859 81.7496 199.835 81.6649C199.579 80.7745 202.825 80.1119 202.825 80.1119C202.825 80.1119 201.306 79.7723 201.413 79.002C201.533 78.1448 207.547 78.7494 207.547 78.7494C207.87 78.8116 209.385 83.1558 209.323 83.4788L205.352 84.7626L205.033 84.8537C205.033 84.8537 202.266 85.798 201.976 85.1271Z" fill="#FFA87C"/>
<path d="M203.38 81.0825L200.325 81.9666L200.469 82.4639L203.524 81.5797L203.38 81.0825Z" fill="#0083AF"/>
<path d="M203.756 82.3335L200.7 83.2133L200.843 83.7108L203.899 82.8309L203.756 82.3335Z" fill="#0083AF"/>
<path d="M204.122 83.613L202.086 84.2025L202.229 84.6997L204.266 84.1103L204.122 83.613Z" fill="#0083AF"/>
<path d="M228.846 58.8794C225.723 71.2744 218.356 74.7158 206.992 77.7555C206.88 77.7887 208.963 84.303 209.063 84.2698C212.79 83.1931 234.171 81.2964 236.275 54.0837C236.288 54.0837 229.21 57.4423 228.846 58.8794Z" fill="#C4D7FF"/>
<path d="M242.939 53.2513C242.646 53.2584 242.355 53.2079 242.082 53.1025C241.809 52.9971 241.559 52.8389 241.347 52.637C241.135 52.4351 240.965 52.1934 240.847 51.9257C240.728 51.6581 240.664 51.3697 240.657 51.0771L240.549 49.7602L240.466 43.0222L244.922 42.9187L245.113 50.9694C245.12 51.262 245.069 51.5532 244.964 51.8262C244.858 52.0993 244.7 52.3489 244.498 52.5608C244.296 52.7727 244.055 52.9428 243.787 53.0613C243.52 53.1797 243.231 53.2443 242.939 53.2513V53.2513Z" fill="#FFA87C"/>
<path d="M240.16 48.7746C236.346 48.729 234.627 44.8527 234.929 40.757C235.29 35.7874 238.077 31.6088 243.142 32.5861C252.369 34.3627 249.573 48.8781 240.16 48.7746Z" fill="#FFA87C"/>
<path d="M242.624 40.6824C242.612 40.7708 242.574 40.8536 242.514 40.9203C242.455 40.9869 242.377 41.0345 242.291 41.057C242.204 41.0795 242.113 41.0758 242.029 41.0465C241.945 41.0172 241.871 40.9636 241.817 40.8924C241.763 40.8212 241.732 40.7356 241.726 40.6465C241.721 40.5574 241.743 40.4687 241.788 40.3917C241.833 40.3147 241.9 40.2529 241.98 40.2139C242.06 40.175 242.151 40.1608 242.239 40.173C242.298 40.1806 242.355 40.1999 242.406 40.2298C242.458 40.2596 242.503 40.2994 242.538 40.3468C242.574 40.3943 242.6 40.4484 242.615 40.506C242.63 40.5636 242.633 40.6236 242.624 40.6824Z" fill="#0083AF"/>
<path d="M237.836 40.4753C237.824 40.5636 237.786 40.6463 237.727 40.713C237.668 40.7797 237.591 40.8274 237.504 40.8501C237.418 40.8728 237.327 40.8695 237.243 40.8406C237.159 40.8117 237.085 40.7585 237.031 40.6877C236.977 40.6169 236.945 40.5317 236.939 40.4427C236.933 40.3538 236.954 40.2652 236.998 40.188C237.043 40.1108 237.109 40.0485 237.189 40.009C237.269 39.9695 237.359 39.9545 237.447 39.9659C237.566 39.9824 237.674 40.0452 237.747 40.1406C237.82 40.2359 237.852 40.3562 237.836 40.4753V40.4753Z" fill="#0083AF"/>
<path d="M243.369 40.0653C243.264 39.8365 243.107 39.6348 242.912 39.4755C242.717 39.3161 242.488 39.2034 242.243 39.146C242.035 39.1169 241.824 39.1395 241.628 39.2117C241.431 39.284 241.255 39.4037 241.116 39.5601L240.752 39.1915C240.95 38.9785 241.196 38.8164 241.47 38.7191C241.744 38.6218 242.038 38.592 242.326 38.6324C242.653 38.7009 242.96 38.8451 243.222 39.0537C243.484 39.2623 243.693 39.5293 243.833 39.8334L243.369 40.0653Z" fill="#0083AF"/>
<path d="M239.907 42.7158L238.123 42.6081L238.247 39.5642C238.182 39.4039 238.078 39.2626 237.944 39.1533C237.81 39.0439 237.651 38.9702 237.481 38.9389C237.257 38.9386 237.037 38.9928 236.84 39.0967C236.642 39.2006 236.472 39.3511 236.346 39.5352L235.932 39.2122C236.111 38.958 236.352 38.7528 236.631 38.6154C236.91 38.4779 237.219 38.4126 237.53 38.4253C237.798 38.4682 238.049 38.5802 238.26 38.7502C238.47 38.9201 238.633 39.1422 238.731 39.3944L238.76 39.4524L238.653 42.1236L239.928 42.1981L239.907 42.7158Z" fill="#0083AF"/>
<path d="M242.015 31.3272C234.213 31.6667 234.039 35.8453 238.064 37.0753C239.485 37.4894 245.56 36.0234 246.136 38.3798C246.55 39.9742 246.028 42.8193 244.218 42.5212C240.827 41.9289 235.352 42.107 234.718 43.7636C233.757 46.3395 236.023 49.2591 239.423 49.8554C242.823 50.4518 247.465 48.6627 248.666 43.1879C249.453 39.6057 250.091 30.9751 242.015 31.3272Z" fill="#0083AF"/>
<path d="M248.04 39.5063L247.767 43.2334H247.825C248.27 43.1852 248.684 42.9807 248.993 42.6562C249.301 42.3316 249.485 41.9082 249.511 41.461C249.537 41.0139 249.403 40.5721 249.134 40.2142C248.865 39.8563 248.477 39.6054 248.04 39.5063Z" fill="#FFA87C"/>
<path d="M239.7 44.451C239.178 44.4471 238.671 44.2742 238.255 43.9582L238.562 43.544C238.774 43.7069 239.019 43.8229 239.279 43.8843C239.54 43.9457 239.81 43.9511 240.073 43.9002C240.378 43.8392 240.667 43.7161 240.922 43.5387C241.177 43.3613 241.392 43.1334 241.556 42.869L241.999 43.1423C241.796 43.4663 241.53 43.7456 241.216 43.9635C240.902 44.1813 240.547 44.3331 240.172 44.4096C240.017 44.4375 239.859 44.4513 239.7 44.451Z" fill="#FFA87C"/>
<path d="M272.569 152.622L276.918 148.684L269.281 129.497L260.415 132.119L272.569 152.622Z" fill="#FFA87C"/>
<path d="M267.551 158.217L279.171 153.285L276.918 148.684L266.93 157.774L267.551 158.217Z" fill="#FFA87C"/>
<path d="M272.268 152.916L277.958 150.225L279.453 153.426L267.551 158.217L266.93 157.774L272.268 152.916Z" fill="#C4D7FF"/>
<path d="M266.702 157.87L269.166 155.513L269.729 156.727L279.229 152.569L279.714 153.571L267.049 158.511L266.702 157.87Z" fill="#0083AF"/>
<path d="M271.92 154.387L273.282 153.447C273.282 153.447 272.566 150.842 271.911 151.078C271.153 151.347 271.92 154.387 271.92 154.387Z" fill="#C4D7FF"/>
<path d="M267.26 147.901L276.35 144.12L266.449 118.196L264.411 82.5801C264.411 82.5801 258.087 73.0302 246.363 73.4692L248.604 93.7327L253.031 118.212L267.26 147.901Z" fill="#C6D0D6"/>
<path d="M241.228 155.277L247.138 152.672L247.925 132.951L240.267 137.358L241.228 155.277Z" fill="#FFA87C"/>
<path d="M234.95 158.151L247.569 157.778L247.138 152.672L234.532 157.513L234.95 158.151Z" fill="#FFA87C"/>
<path d="M241.27 154.925L247.552 154.486L247.78 158.01L234.95 158.151L234.532 157.513L241.27 154.925Z" fill="#C4D7FF"/>
<path d="M234.287 157.517L237.439 156.217L237.522 157.551L247.883 157.128L247.97 158.242H234.378L234.287 157.517Z" fill="#0083AF"/>
<path d="M240.408 156.167L242.023 155.791C242.023 155.791 242.301 153.103 241.609 153.082C240.801 153.061 240.408 156.167 240.408 156.167Z" fill="#C4D7FF"/>
<path d="M248.517 151.384L239.572 151.281L233.542 81.6691C233.542 81.6691 239.692 73.4775 246.239 73.4775L248.62 74.9436L248.517 151.384Z" fill="#C6D0D6"/>
<path d="M248.773 151.384H248.256L248.363 93.9067L244.806 92.3496L245.013 91.8733L248.881 93.5671V93.7369L248.773 151.384Z" fill="#0083AF"/>
<path d="M262.308 92.5856C261.117 92.5785 259.947 92.2711 258.907 91.692C257.867 91.1129 256.99 90.2807 256.356 89.2725L256.8 89.0075C257.446 90.0455 258.371 90.881 259.47 91.4184C260.568 91.9559 261.795 92.1738 263.012 92.0472L263.074 92.5608C262.819 92.5841 262.563 92.5924 262.308 92.5856Z" fill="#0083AF"/>
<path d="M247.407 55.4586L239.281 55.8562L239.02 51.2179L246.657 50.6381L247.407 55.4586Z" fill="#FFA87C"/>
<path d="M259.048 58.9456C257.744 53.3507 252.174 49.6194 246.554 50.3151L246.107 50.3689C246.02 51.1349 245.673 51.8479 245.123 52.3885C244.574 52.929 243.855 53.2644 243.088 53.3383C242.988 53.3383 242.889 53.3383 242.789 53.359C242.043 53.3691 241.311 53.1619 240.68 52.7625C240.05 52.3632 239.55 51.7891 239.24 51.1102L238.147 51.2096C232.494 51.7149 228.287 56.4857 228.783 62.1676C229.667 71.3862 230.55 80.6048 231.434 89.8234L265.169 86.237C263.134 77.1398 261.094 68.0427 259.048 58.9456Z" fill="#C4D7FF"/>
<path d="M231.177 89.8524L228.523 62.1966C228.017 56.4194 232.25 51.4788 238.126 50.957L238.172 51.4706C232.569 51.9717 228.56 56.6596 229.061 62.151L231.711 89.8027L231.177 89.8524Z" fill="#0083AF"/>
<path d="M242.727 56.3656C241.764 56.3744 240.815 56.1361 239.971 55.6735C239.126 55.211 238.414 54.5395 237.903 53.7234L238.342 53.4501C238.91 54.3628 239.751 55.0738 240.745 55.4825C241.739 55.8912 242.837 55.977 243.883 55.7278L243.986 56.233C243.572 56.3197 243.15 56.3641 242.727 56.3656V56.3656Z" fill="#0083AF"/>
<path d="M235.266 147.656C250.35 132.571 250.35 108.115 235.266 93.0301C220.181 77.9456 195.724 77.9456 180.64 93.0301C165.555 108.115 165.555 132.571 180.64 147.656C195.724 162.74 220.181 162.74 235.266 147.656Z" fill="#FFCD32"/>
<path d="M232.401 144.792C245.904 131.289 245.904 109.397 232.401 95.894C218.899 82.3913 197.006 82.3913 183.504 95.894C170.001 109.397 170.001 131.289 183.504 144.792C197.006 158.295 218.899 158.295 232.401 144.792Z" fill="#C6D0D6"/>
<path d="M223.777 89.6245L177.241 136.165C180.503 142.538 185.657 147.746 191.996 151.074L238.665 104.38C235.341 98.0456 230.141 92.8923 223.777 89.6245Z" fill="#FEFEFE"/>
<path d="M207.733 120.304V96.8926H208.251V119.504L220.028 114.253L220.236 114.729L207.733 120.304Z" fill="#0083AF"/>
<path d="M207.953 151.711C201.747 151.711 195.681 149.871 190.522 146.424C185.362 142.976 181.341 138.076 178.966 132.343C176.592 126.61 175.97 120.302 177.181 114.216C178.392 108.13 181.38 102.539 185.767 98.1514C190.155 93.7636 195.746 90.7754 201.832 89.5648C207.918 88.3542 214.226 88.9755 219.959 91.3502C225.692 93.7249 230.592 97.7463 234.04 102.906C237.487 108.065 239.327 114.131 239.327 120.337C239.319 128.655 236.01 136.63 230.128 142.512C224.246 148.394 216.271 151.703 207.953 151.711V151.711ZM207.953 89.4838C201.85 89.4838 195.884 91.2936 190.809 94.6844C185.735 98.0752 181.78 102.895 179.444 108.533C177.109 114.172 176.498 120.376 177.689 126.362C178.88 132.348 181.819 137.846 186.135 142.161C190.451 146.477 195.949 149.415 201.935 150.605C207.921 151.796 214.126 151.184 219.764 148.848C225.402 146.512 230.221 142.556 233.611 137.481C237.002 132.406 238.811 126.44 238.81 120.337C238.8 112.157 235.545 104.315 229.761 98.5313C223.976 92.7479 216.133 89.4956 207.953 89.4879V89.4838Z" fill="#0083AF"/>
<path d="M230.593 91.9603C230.547 91.8957 230.514 91.8221 230.497 91.7442C230.481 91.6662 230.48 91.5856 230.497 91.5076C230.513 91.4296 230.546 91.3559 230.592 91.2912C230.639 91.2265 230.698 91.1723 230.767 91.132C230.767 91.132 229.347 92.0638 228.982 91.5089C228.692 91.0658 229.173 90.5936 229.173 90.5936C229.173 90.5936 227.955 91.3929 227.591 90.838C227.226 90.283 228.448 89.4838 228.448 89.4838C228.375 89.5318 228.294 89.565 228.208 89.5814C228.122 89.5978 228.034 89.5971 227.949 89.5794C227.863 89.5617 227.782 89.5274 227.71 89.4783C227.638 89.4291 227.576 89.3663 227.529 89.2933C227.019 88.5188 229.927 86.9286 229.927 86.9286C229.927 86.9286 228.374 87.0528 228.27 86.2867C228.133 85.4294 234.068 84.216 234.068 84.216C234.395 84.1787 237.124 87.8811 237.161 88.2082L233.745 90.6102L233.467 90.7924C233.467 90.7924 231.07 92.5194 230.593 91.9603Z" fill="#FFA87C"/>
<path d="M230.743 87.6897L228.083 89.4341L228.367 89.8669L231.027 88.1226L230.743 87.6897Z" fill="#0083AF"/>
<path d="M231.47 88.7638L228.811 90.5086L229.095 90.9414L231.754 89.1966L231.47 88.7638Z" fill="#0083AF"/>
<path d="M232.194 89.8705L230.421 91.0337L230.705 91.4665L232.478 90.3033L232.194 89.8705Z" fill="#0083AF"/>
<path d="M248.413 57.3968C249.656 71.2868 243.572 76.9314 233.215 83.4416C233.115 83.4996 237.025 89.1069 237.124 89.0489C238.917 87.9515 260.316 79.6854 255.636 54.473" fill="#C4D7FF"/>
<path d="M237.116 89.3264C236.925 89.3264 236.635 88.9329 235.261 86.9782C234.507 85.9056 233.521 84.4727 233.14 83.8557C232.979 83.5948 232.838 83.367 233.078 83.2221C244.26 76.2066 249.345 70.5537 248.157 57.4216L248.674 57.3719C249.987 71.8665 242.939 77.6188 233.55 83.5368C234.076 84.4023 236.582 87.9929 237.17 88.7259C237.322 88.6431 237.524 88.5395 237.778 88.4153C255.843 79.4286 257.321 65.0251 255.383 54.5227L255.893 54.4274C257.864 65.1038 256.365 79.7475 238.01 88.8791C237.65 89.0572 237.389 89.1856 237.257 89.2684C237.217 89.3015 237.168 89.3217 237.116 89.3264V89.3264Z" fill="#0083AF"/>
<path d="M196.635 30.5693L219.072 30.5693C226.734 30.5693 232.946 24.3579 232.946 16.6958C232.946 9.03372 226.734 2.82237 219.072 2.82237L196.635 2.82237C188.973 2.82237 182.761 9.03372 182.761 16.6958C182.761 24.3579 188.973 30.5693 196.635 30.5693Z" fill="#FFCD32"/>
<path d="M224.087 38.5413L221.726 25.2559L211.394 29.6871L224.087 38.5413Z" fill="#FFCD32"/>
<path d="M222.907 10.3058H214.823V10.8234H222.907V10.3058Z" fill="#0083AF"/>
<path d="M222.902 14.3477H192.592V14.8654H222.902V14.3477Z" fill="#0083AF"/>
<path d="M199.665 18.3855H192.592V18.9031H199.665V18.3855Z" fill="#0083AF"/>
<path d="M222.903 18.3855H202.698V18.9031H222.903V18.3855Z" fill="#0083AF"/>
<path d="M222.903 22.4274H202.698V22.9451H222.903V22.4274Z" fill="#0083AF"/>
<path d="M108.118 81.5448C107.953 79.6899 107.135 77.9537 105.81 76.6449C104.486 75.3361 102.74 74.5395 100.883 74.3969L70.4814 72.0943L69.3259 86.8996L108.109 88.8212L108.118 81.5448Z" fill="#0083AF"/>
<path d="M30.0207 87.9142L39.9765 158.768H134.908L127.085 103.08L124.952 87.9142H30.0207Z" fill="#0083AF"/>
<path d="M122.666 103.08H27.7345L29.8673 87.9142H124.799L122.666 103.08Z" fill="#C4D7FF"/>
<path d="M114.839 158.768H19.9073L27.7261 103.158H122.658L114.839 158.768Z" fill="white"/>
<path d="M115.067 159.029H19.609L27.4775 102.898H122.956L122.914 103.196L115.067 159.029ZM20.2053 158.511H114.628L122.372 103.432H27.9496L20.2053 158.511Z" fill="#0083AF"/>
<path d="M102.543 130.98H90.0198L91.7385 118.755H104.262L102.543 130.98Z" fill="#FFCD32"/>
<path d="M75.8153 143.085H63.2919L65.0106 130.856H77.534L75.8153 143.085Z" fill="#FFCD32"/>
<path d="M50.8511 143.085H38.3277L40.0463 130.856H52.5697L50.8511 143.085Z" fill="#C4D7FF"/>
<path d="M41.9767 119.049H28.9316L30.7206 106.306H43.7699L41.9767 119.049ZM29.5279 118.531H41.5378L43.1943 106.823H31.1844L29.5279 118.531Z" fill="#0083AF"/>
<path d="M54.479 119.049H41.4338L43.2228 106.306H56.268L54.479 119.049ZM42.026 118.531H54.0358L55.6924 106.823H43.6825L42.026 118.531Z" fill="#0083AF"/>
<path d="M66.9775 119.049H53.9323L55.7255 106.306H68.7707L66.9775 119.049ZM54.5287 118.531H66.5385L68.1951 106.823H56.1852L54.5287 118.531Z" fill="#0083AF"/>
<path d="M79.4803 119.049H66.4351L68.2242 106.306H81.2693L79.4803 119.049ZM67.0273 118.531H79.0372L80.6937 106.823H68.6838L67.0273 118.531Z" fill="#0083AF"/>
<path d="M91.9829 119.049H78.9336L80.7268 106.306H93.772L91.9829 119.049ZM79.53 118.531H91.5398L93.1964 106.823H81.1865L79.53 118.531Z" fill="#0083AF"/>
<path d="M104.486 119.049H91.4406L93.2297 106.306H106.279L104.486 119.049ZM92.037 118.531H104.047L105.703 106.823H93.6935L92.037 118.531Z" fill="#0083AF"/>
<path d="M116.984 119.049H103.935L105.728 106.306H118.773L116.984 119.049ZM104.531 118.531H116.541L118.198 106.823H106.188L104.531 118.531Z" fill="#0083AF"/>
<path d="M40.266 131.241H27.2166L29.0098 118.494H42.055L40.266 131.241ZM27.813 130.723H39.8228L41.4794 119.011H29.4695L27.813 130.723Z" fill="#0083AF"/>
<path d="M52.7646 131.241H39.7194L41.5085 118.494H54.5578L52.7646 131.241ZM40.3158 130.723H52.3256L53.9614 118.995H41.9516L40.3158 130.723Z" fill="#0083AF"/>
<path d="M65.2673 131.241H52.2179L54.0111 118.494H67.0563L65.2673 131.241ZM52.8143 130.723H64.8241L66.4807 119.011H54.4708L52.8143 130.723Z" fill="#0083AF"/>
<path d="M77.7655 131.241H64.7286L66.5177 118.494H79.567L77.7655 131.241ZM65.3167 130.723H77.3266L78.9831 119.011H66.9732L65.3167 130.723Z" fill="#0083AF"/>
<path d="M90.2687 131.241H77.2235L79.0125 118.494H92.0618L90.2687 131.241ZM77.8157 130.723H89.8255L91.4821 119.011H79.4722L77.8157 130.723Z" fill="#0083AF"/>
<path d="M115.253 131.241H102.208L103.997 118.494H117.046L115.253 131.241ZM102.829 130.723H114.839L116.495 119.011H104.486L102.829 130.723Z" fill="#0083AF"/>
<path d="M38.5516 143.429H25.5065L27.2955 130.682H40.3407L38.5516 143.429ZM26.0987 142.911H38.1085L39.7651 131.199H27.7552L26.0987 142.911Z" fill="#0083AF"/>
<path d="M51.0623 143.429H38.0172L39.8104 130.682H52.8555L51.0623 143.429ZM38.6135 142.911H50.6234L52.2799 131.199H40.27L38.6135 142.911Z" fill="#0083AF"/>
<path d="M63.5529 143.429H50.5078L52.3051 130.686H65.3503L63.5529 143.429ZM51.1 142.911H63.1098L64.7663 131.199H52.7565L51.1 142.911Z" fill="#0083AF"/>
<path d="M76.0551 143.429H63.0058L64.799 130.682H77.8442L76.0551 143.429ZM63.6021 142.911H75.612L77.2685 131.199H65.2587L63.6021 142.911Z" fill="#0083AF"/>
<path d="M88.554 143.429H75.4964L77.2854 130.682H90.3347L88.554 143.429ZM76.1052 142.911H88.115L89.7715 131.199H77.7617L76.1052 142.911Z" fill="#0083AF"/>
<path d="M101.056 143.429H88.0071L89.8003 130.682H102.829L101.056 143.429ZM88.6034 142.911H100.613L102.27 131.199H90.26L88.6034 142.911Z" fill="#0083AF"/>
<path d="M113.555 143.429H100.51L102.303 130.682H115.348L113.555 143.429ZM101.106 142.911H113.116L114.773 131.199H102.763L101.106 142.911Z" fill="#0083AF"/>
<path d="M36.8373 155.621H23.7921L25.5811 142.878H38.6387L36.8373 155.621ZM24.3884 155.103H36.3983L38.0548 143.396H26.045L24.3884 155.103Z" fill="#0083AF"/>
<path d="M49.3399 155.621H36.2906L38.0838 142.878H51.129L49.3399 155.621ZM36.887 155.103H48.8968L50.5533 143.396H38.5435L36.887 155.103Z" fill="#0083AF"/>
<path d="M61.8301 155.621H48.7849L50.574 142.878H63.6233L61.8301 155.621ZM49.4061 155.103H61.416L63.0725 143.396H51.0626L49.4061 155.103Z" fill="#0083AF"/>
<path d="M74.3408 155.621H61.2956L63.0722 142.878H76.1174L74.3408 155.621ZM61.8878 155.103H73.8977L75.5542 143.396H63.5443L61.8878 155.103Z" fill="#0083AF"/>
<path d="M86.8393 155.621H73.7942L75.5873 142.878H88.6325L86.8393 155.621ZM74.3905 155.103H86.4004L88.0569 143.396H76.047L74.3905 155.103Z" fill="#0083AF"/>
<path d="M99.3421 155.621H86.2969L88.086 142.878H101.135L99.3421 155.621ZM86.8891 155.103H98.899L100.556 143.396H88.5457L86.8891 155.103Z" fill="#0083AF"/>
<path d="M111.845 155.621H98.7954L100.589 142.878H113.634L111.845 155.621ZM99.3918 155.103H111.402L113.058 143.396H101.048L99.3918 155.103Z" fill="#0083AF"/>
<path d="M80.7145 40.3966L71.8396 42.5046C75.1527 51.7811 83.9944 59.9975 96.5178 61.4884C99.0942 58.6653 101.186 55.4357 102.709 51.9302C91.8629 52.8993 83.8867 47.0642 80.7145 40.3966Z" fill="#0083AF"/>
<path d="M82.5367 88.2289H59.8008C52.8475 88.2289 51.5886 83.3588 51.6797 80.1078C51.7708 76.8569 53.0712 67.3442 53.0712 67.3442L82.5367 69.1996V88.2289Z" fill="white"/>
<path d="M82.7975 88.4857H59.8008C57.0509 88.4857 54.9306 87.7361 53.4935 86.2577C51.5926 84.3071 51.3773 81.5614 51.4229 80.0995C51.5098 76.9149 52.8061 67.4064 52.8185 67.3111L52.8516 67.0709L82.8017 68.9594L82.7975 88.4857ZM53.2947 67.6176C53.0918 69.1167 52.0151 77.2379 51.9364 80.112C51.8991 81.4952 52.0979 84.0835 53.8621 85.9098C55.1997 87.2847 57.1959 87.9805 59.8008 87.9805H82.2799V69.4439L53.2947 67.6176Z" fill="#0083AF"/>
<path d="M79.5052 115.881L74.577 112.642L80.905 92.9749L87.9452 93.7369L79.5052 115.881Z" fill="#FFA87C"/>
<path d="M84.3461 120.146L72.3114 116.556L74.8998 111.963L85.0212 119.662L84.3461 120.146Z" fill="#FFA87C"/>
<path d="M79.6129 115.545L73.7322 113.528L72.0094 116.717L84.3464 120.146L85.0214 119.662L79.6129 115.545Z" fill="#C4D7FF"/>
<path d="M85.2571 119.732L82.764 117.719L82.118 118.933L72.2823 115.881L71.7232 116.879L84.8595 120.374L85.2571 119.732Z" fill="#0083AF"/>
<path d="M79.9151 116.924L78.5194 116.158C78.5194 116.158 79.3933 113.611 80.0724 113.769C80.88 113.947 79.9151 116.924 79.9151 116.924Z" fill="#C4D7FF"/>
<path d="M59.8007 88.229L79.0579 88.6928L72.7672 108.07L86.1313 111.851L94.7038 84.3693C96.2196 79.3251 92.4095 75.9499 88.6244 75.6725L65.3667 73.3699" fill="white"/>
<path d="M86.3051 112.17L72.4399 108.227L78.7057 88.9247L59.7923 88.4691V87.9515L79.3973 88.4236L73.0859 107.888L85.9613 111.54L94.4593 84.2988C95.2296 81.7312 94.5049 79.8966 93.7594 78.8157C93.1642 77.985 92.394 77.2949 91.5032 76.794C90.6124 76.2932 89.6226 75.9937 88.6035 75.9168L65.3417 73.6101L65.3914 73.0965L88.649 75.3991C89.7432 75.4833 90.8056 75.8057 91.7621 76.3437C92.7185 76.8816 93.5458 77.6222 94.186 78.5134C94.9936 79.6895 95.7846 81.6732 94.9521 84.4438L86.3051 112.17Z" fill="#0083AF"/>
<path d="M78.4615 109.66L77.9687 109.503L86.036 83.864L62.5961 83.3795C59.1961 83.3795 57.0385 82.779 55.8168 81.4869C54.3507 79.9421 54.4708 77.5982 54.5992 75.1175V74.985C54.7649 71.8086 55.9162 62.3001 55.9286 62.2048L56.4462 62.2587C56.4462 62.3539 55.2825 71.8459 55.121 75.0016V75.1382C54.9926 77.623 54.8808 79.7392 56.1936 81.1224C57.2994 82.2861 59.3949 82.8535 62.6085 82.8535L86.7359 83.3795L78.4615 109.66Z" fill="#0083AF"/>
<path d="M72.0135 35.1993H62.6831V39.9908H72.0135V35.1993Z" fill="#FFA87C"/>
<path d="M82.7358 44.9604C82.6281 39.2578 77.936 34.9591 72.2624 35.0543H71.3471C71.284 35.9611 70.9001 36.8158 70.2642 37.4654C69.6283 38.1149 68.7819 38.5169 67.8767 38.5993V38.5993H67.5744C66.6896 38.6082 65.8369 38.268 65.2012 37.6525C64.5655 37.037 64.1981 36.1957 64.1785 35.3111V35.0377H63.8182C58.157 34.9425 53.0135 39.2412 52.3053 44.9438C51.2368 54.2038 50.0814 72.7528 50.0814 72.7528L83.0381 72.7238C82.9332 63.4749 82.8324 54.2204 82.7358 44.9604Z" fill="#FFCD32"/>
<path d="M82.7686 63.6916C82.7189 59.0657 82.6734 56.6513 82.6237 54.3322C82.574 52.0131 82.5243 49.5945 82.4787 44.9645C82.4513 43.2337 81.9639 41.5414 81.0665 40.0612C80.1975 38.6325 78.9752 37.4516 77.5174 36.6322C76.7782 36.2146 75.9892 35.8918 75.1693 35.6714C74.3258 35.44 73.4556 35.3203 72.5809 35.3152C72.3035 35.3152 72.0302 35.3152 71.7527 35.3152H71.5829C71.4671 36.2391 71.038 37.0954 70.3673 37.7412C69.6966 38.3871 68.8247 38.7835 67.8971 38.8643C67.4009 38.9104 66.9005 38.8542 66.427 38.699C65.9534 38.5439 65.5168 38.2931 65.1441 37.9623C64.7714 37.6316 64.4705 37.2278 64.2602 36.776C64.0499 36.3242 63.9346 35.8341 63.9214 35.3359C63.9214 35.2448 63.9214 35.1371 63.9214 35.046H64.4391C64.4391 35.1247 64.4391 35.2241 64.4391 35.3028C64.4509 35.7302 64.5502 36.1506 64.7309 36.5381C64.9116 36.9255 65.1698 37.2718 65.4896 37.5556C65.8095 37.8393 66.1841 38.0544 66.5903 38.1876C66.9966 38.3209 67.4258 38.3693 67.8515 38.3301C68.6957 38.2492 69.4839 37.8722 70.0767 37.2658C70.6694 36.6594 71.0284 35.8628 71.0901 35.0171V34.7769H71.732C72.0136 34.7769 72.2911 34.7769 72.5602 34.7769C73.4793 34.7857 74.3935 34.9109 75.2811 35.1496C76.1484 35.3809 76.9833 35.7204 77.7659 36.1601C78.5285 36.5936 79.2338 37.1209 79.8655 37.7296C80.5022 38.337 81.0589 39.0231 81.5221 39.7713C81.9865 40.5316 82.3472 41.3505 82.5947 42.2064C82.8559 43.0945 82.9952 44.014 83.0088 44.9397C83.0544 49.5655 83.1041 51.9799 83.1538 54.2991C83.2034 56.6182 83.249 59.0367 83.2987 63.6667L82.7686 63.6916Z" fill="#0083AF"/>
<path d="M53.1123 68.98L53.0833 69.4969L80.0631 71.01L80.0921 70.4931L53.1123 68.98Z" fill="#0083AF"/>
<path d="M79.6127 58.8338C78.1263 58.2181 76.541 57.8758 74.933 57.8233V63.2609C77.6456 63.3189 80.5321 63.3727 83.108 63.439C82.9755 61.3849 81.4101 59.6745 79.6127 58.8338Z" fill="#FFA87C"/>
<path d="M50.6486 56.9412C47.3894 50.4228 50.7687 40.3303 58.6538 36.2056C58.6538 36.2056 61.9668 40.3469 63.8304 42.0034C52.7193 54.3901 59.8009 57.5583 75.6498 55.3427L76.3497 63.8158C76.3497 63.8158 66.2283 64.7435 63.437 64.3293C58.4881 63.617 53.1003 61.8445 50.6486 56.9412Z" fill="#FFCD32"/>
<path d="M67.9097 64.8885C61.6977 64.8885 53.8292 63.4928 50.4168 57.0613C47.7456 52.0421 48.9963 43.395 55.7052 37.622L56.0448 38.0361C49.5305 43.6435 48.3005 52.0007 50.8723 56.8377C56.3596 67.1579 73.8981 64.0602 76.0723 63.6295C75.977 62.4409 75.5215 56.9785 75.4138 55.6699C66.3029 57.2891 60.0454 56.407 58.2025 53.243C56.8855 50.9819 57.9043 47.8221 61.2256 43.8588L61.6398 44.1901C58.5213 47.9173 57.4984 50.957 58.6704 52.9821C60.3891 55.9349 66.7253 56.7093 75.6209 55.1066L75.9025 55.0569L75.9273 55.3427C76.6314 63.8241 76.6314 63.8241 76.6314 63.8366V64.0436L76.4284 64.0892C73.6214 64.6307 70.7685 64.8984 67.9097 64.8885Z" fill="#0083AF"/>
<path d="M85.6136 45.5277L81.4516 63.1035L70.0795 63.7744L69.8269 65.6049H106.366L110.954 45.5277H85.6136Z" fill="#C6D0D6"/>
<path d="M96.2026 57.6618C95.8979 57.6667 95.5959 57.6042 95.3182 57.479C95.0404 57.3537 94.7938 57.1687 94.5957 56.9371C94.3729 56.6596 94.2131 56.337 94.1273 55.9916C94.0415 55.6462 94.0317 55.2863 94.0988 54.9368C94.3348 53.4832 95.6352 52.2988 96.9977 52.2988C97.3017 52.2946 97.6028 52.3573 97.8798 52.4825C98.1568 52.6078 98.4028 52.7925 98.6004 53.0235C98.8234 53.3001 98.9833 53.622 99.0692 53.9668C99.155 54.3115 99.1646 54.6708 99.0974 55.0197C98.8696 56.4608 97.5692 57.6618 96.2026 57.6618ZM96.9936 52.8165C96.405 52.8586 95.8483 53.0997 95.4148 53.5C94.9813 53.9004 94.6969 54.4363 94.6082 55.0197C94.5549 55.2953 94.5613 55.5791 94.627 55.852C94.6927 56.1249 94.8162 56.3805 94.9892 56.6016C95.1394 56.7753 95.326 56.9139 95.5356 57.0077C95.7453 57.1014 95.9729 57.148 96.2026 57.1442C97.3166 57.1442 98.3851 56.1544 98.5838 54.9368C98.6371 54.6612 98.6307 54.3774 98.565 54.1045C98.4993 53.8316 98.3758 53.576 98.2028 53.3548C98.0542 53.1838 97.8702 53.0471 97.6636 52.9542C97.4569 52.8612 97.2326 52.8142 97.006 52.8165H96.9936Z" fill="#0083AF"/>
<path d="M70.0959 64.0312L70.0628 63.5135L81.2444 62.8551L85.3608 45.4698L85.8661 45.5899L81.6585 63.352L70.0959 64.0312Z" fill="#0083AF"/>
<path d="M105.467 63.6502C105.471 63.5713 105.491 63.494 105.526 63.4233C105.562 63.3526 105.611 63.2899 105.672 63.2393C105.733 63.1887 105.803 63.1513 105.879 63.1293C105.955 63.1074 106.035 63.1014 106.113 63.1118C106.113 63.1118 104.423 62.9586 104.481 62.2836C104.531 61.7535 105.202 61.6831 105.202 61.6831C105.202 61.6831 103.748 61.5506 103.81 60.8921C103.873 60.2336 105.322 60.362 105.322 60.362C105.235 60.3542 105.151 60.3294 105.074 60.2889C104.997 60.2484 104.928 60.1932 104.872 60.1262C104.817 60.0593 104.775 59.982 104.749 59.8988C104.723 59.8156 104.714 59.7282 104.722 59.6414C104.804 58.7179 107.732 59.1196 108.569 59.7159C109.836 60.6188 108.83 63.9153 107.637 64.5903C107.124 64.8967 105.492 64.3832 105.467 63.6502Z" fill="#FFA87C"/>
<path d="M105.071 60.0911L105.025 60.6067L108.192 60.8922L108.239 60.3766L105.071 60.0911Z" fill="#0083AF"/>
<path d="M104.952 61.4102L104.905 61.9258L108.073 62.2112L108.119 61.6957L104.952 61.4102Z" fill="#0083AF"/>
<path d="M105.887 62.8245L105.841 63.3401L107.953 63.5304L107.999 63.0148L105.887 62.8245Z" fill="#0083AF"/>
<path d="M67.5988 37.9284C68.2086 37.938 68.7986 37.7115 69.2455 37.2963C69.6923 36.8811 69.9614 36.3093 69.9966 35.7004L69.9759 34.4083V27.6703L65.4494 27.6206L65.3666 35.6755C65.3655 36.2698 65.5996 36.8403 66.0179 37.2625C66.4362 37.6846 67.0045 37.924 67.5988 37.9284V37.9284Z" fill="#FFA87C"/>
<path d="M69.9967 34.9467L64.1616 30.826L70.357 27.1113L69.9967 34.9467Z" fill="#0083AF"/>
<path d="M70.2822 33.4144C74.0964 33.3232 75.7612 29.4221 75.4092 25.3305C74.995 20.3609 72.1375 16.2196 67.0893 17.2673C57.8831 19.1889 60.8731 33.6421 70.2822 33.4144Z" fill="#FFA87C"/>
<path d="M67.7108 25.3595C67.7248 25.4474 67.7644 25.5292 67.8248 25.5946C67.8851 25.6601 67.9635 25.7062 68.05 25.7272C68.1365 25.7482 68.2273 25.7432 68.3109 25.7128C68.3946 25.6823 68.4674 25.6278 68.5201 25.5561C68.5729 25.4844 68.6033 25.3988 68.6075 25.3098C68.6117 25.2209 68.5895 25.1328 68.5437 25.0564C68.4979 24.9801 68.4306 24.919 68.3502 24.8808C68.2698 24.8426 68.1799 24.8291 68.0918 24.8418C68.0326 24.8504 67.9757 24.8707 67.9244 24.9014C67.8731 24.9322 67.8285 24.9728 67.793 25.021C67.7576 25.0692 67.732 25.1239 67.7179 25.182C67.7038 25.2401 67.7014 25.3004 67.7108 25.3595Z" fill="#0083AF"/>
<path d="M72.4858 25.0903C72.4998 25.1782 72.5395 25.26 72.5998 25.3254C72.6602 25.3908 72.7385 25.437 72.825 25.458C72.9115 25.479 73.0023 25.474 73.086 25.4435C73.1696 25.4131 73.2424 25.3586 73.2951 25.2869C73.3479 25.2152 73.3783 25.1295 73.3825 25.0406C73.3867 24.9517 73.3645 24.8635 73.3187 24.7872C73.2729 24.7108 73.2056 24.6497 73.1252 24.6116C73.0448 24.5734 72.9549 24.5598 72.8668 24.5726C72.8076 24.5812 72.7507 24.6014 72.6994 24.6322C72.6482 24.663 72.6035 24.7036 72.568 24.7518C72.5326 24.7999 72.5071 24.8547 72.4929 24.9128C72.4788 24.9709 72.4764 25.0312 72.4858 25.0903Z" fill="#0083AF"/>
<path d="M66.9571 24.7507L66.4933 24.5229C66.6288 24.218 66.8339 23.949 67.0921 23.7376C67.3502 23.5262 67.6544 23.3782 67.98 23.3054C68.2683 23.2596 68.5633 23.2847 68.8396 23.3785C69.116 23.4723 69.3653 23.632 69.5661 23.8438L69.2059 24.2165C69.0663 24.0594 68.89 23.9394 68.6927 23.8671C68.4954 23.7948 68.2833 23.7726 68.0753 23.8023C67.8286 23.864 67.5995 23.9816 67.4056 24.1461C67.2117 24.3105 67.0582 24.5174 66.9571 24.7507V24.7507Z" fill="#0083AF"/>
<path d="M70.6509 29.095C70.5036 29.0954 70.3566 29.0815 70.2119 29.0536C69.8364 28.9828 69.4792 28.8361 69.1623 28.6225C68.8454 28.4088 68.5755 28.1328 68.369 27.8112L68.808 27.5337C68.9747 27.7956 69.1934 28.0204 69.4506 28.1942C69.7077 28.368 69.9979 28.4872 70.303 28.5442C70.5663 28.5927 70.837 28.5846 71.0969 28.5203C71.3569 28.456 71.6001 28.3371 71.8105 28.1715L72.1252 28.5856C71.7046 28.9155 71.1855 29.0949 70.6509 29.095V29.095Z" fill="#0083AF"/>
<path d="M71.438 27.6289L71.3593 27.1154L72.0964 27.0036L71.5581 24.0757L71.5912 24.0011C71.6885 23.7505 71.8492 23.5295 72.0575 23.3596C72.2659 23.1898 72.5147 23.0769 72.7798 23.032C73.091 23.0141 73.4018 23.0749 73.6834 23.2088C73.9649 23.3427 74.2082 23.5454 74.3907 23.7982L73.9766 24.1253C73.848 23.9426 73.6766 23.7942 73.4773 23.6932C73.278 23.5921 73.057 23.5414 72.8336 23.5456C72.6679 23.5753 72.5124 23.6463 72.3814 23.7519C72.2504 23.8576 72.1481 23.9946 72.084 24.1502L72.6887 27.4343L71.438 27.6289Z" fill="#0083AF"/>
<path d="M62.1901 27.0574L65.7061 22.0878C65.7061 22.0878 74.6472 23.1356 76.2996 20.8454C77.542 19.0812 76.2996 16.0539 71.5081 16.0539C53.1537 16.0332 62.1901 27.0574 62.1901 27.0574Z" fill="#0083AF"/>
<path d="M64.12 26.4569C64.0833 26.8289 63.9372 27.1816 63.7003 27.4707C63.4633 27.7598 63.1461 27.9722 62.7886 28.0812C62.4311 28.1902 62.0493 28.1909 61.6914 28.0833C61.3335 27.9756 61.0154 27.7644 60.7774 27.4762C60.5394 27.188 60.392 26.8358 60.3539 26.464C60.3157 26.0922 60.3885 25.7174 60.5631 25.3869C60.7377 25.0564 61.0062 24.785 61.3348 24.607C61.6635 24.4289 62.0374 24.3521 62.4096 24.3863C62.6584 24.4085 62.9003 24.48 63.1213 24.5964C63.3423 24.7128 63.538 24.8719 63.6971 25.0645C63.8562 25.2571 63.9755 25.4793 64.0481 25.7184C64.1206 25.9574 64.1451 26.2084 64.12 26.4569V26.4569Z" fill="#FFA87C"/>
<path d="M63.9419 26.3741C62.8817 26.5274 61.1713 23.0942 61.1713 23.0942C61.1713 22.3281 65.8551 20.3195 65.9587 21.0774C65.9711 21.0774 65.031 26.2292 63.9419 26.3741Z" fill="#0083AF"/>
<path d="M111.348 97.2322C109.451 97.2322 107.598 96.6699 106.021 95.6165C104.445 94.563 103.216 93.0657 102.49 91.3139C101.764 89.5621 101.575 87.6344 101.945 85.7747C102.314 83.9149 103.228 82.2067 104.568 80.8659C105.909 79.5251 107.617 78.612 109.477 78.2421C111.337 77.8722 113.265 78.062 115.016 78.7876C116.768 79.5133 118.266 80.7421 119.319 82.3187C120.372 83.8953 120.935 85.7489 120.935 87.645H120.417C120.417 85.8513 119.885 84.0978 118.889 82.6063C117.892 81.1148 116.476 79.9524 114.818 79.2659C113.161 78.5795 111.337 78.3999 109.578 78.7498C107.819 79.0997 106.203 79.9635 104.934 81.2319C103.666 82.5003 102.802 84.1164 102.452 85.8757C102.102 87.635 102.282 89.4585 102.968 91.1158C103.655 92.773 104.817 94.1895 106.309 95.1861C107.8 96.1826 109.554 96.7145 111.348 96.7145V97.2322Z" fill="#0083AF"/>
<path d="M111.22 98.7397C112.125 98.7397 112.86 98.0054 112.86 97.0997C112.86 96.194 112.125 95.4597 111.22 95.4597C110.314 95.4597 109.58 96.194 109.58 97.0997C109.58 98.0054 110.314 98.7397 111.22 98.7397Z" fill="#0083AF"/>
<path d="M36.4605 97.2322C34.5643 97.2322 32.7108 96.6699 31.1342 95.6165C29.5576 94.563 28.3287 93.0657 27.6031 91.3139C26.8775 89.5621 26.6876 87.6344 27.0575 85.7747C27.4275 83.9149 28.3406 82.2067 29.6813 80.8659C31.0221 79.5251 32.7304 78.612 34.5901 78.2421C36.4499 77.8722 38.3775 78.062 40.1294 78.7876C41.8812 79.5133 43.3785 80.7421 44.4319 82.3187C45.4854 83.8953 46.0477 85.7489 46.0477 87.645H45.53C45.5308 85.8501 44.9993 84.0952 44.0025 82.6024C43.0058 81.1096 41.5888 79.946 39.9306 79.2587C38.2725 78.5715 36.4477 78.3914 34.6872 78.7414C32.9267 79.0914 31.3095 79.9556 30.0403 81.2249C28.7711 82.4941 27.9068 84.1112 27.5569 85.8717C27.2069 87.6322 27.3869 89.457 28.0742 91.1151C28.7615 92.7733 29.9251 94.1904 31.4179 95.1871C32.9107 96.1838 34.6656 96.7154 36.4605 96.7145V97.2322Z" fill="#0083AF"/>
<path d="M36.332 98.7397C37.2378 98.7397 37.972 98.0054 37.972 97.0997C37.972 96.194 37.2378 95.4597 36.332 95.4597C35.4263 95.4597 34.6921 96.194 34.6921 97.0997C34.6921 98.0054 35.4263 98.7397 36.332 98.7397Z" fill="#0083AF"/>
<path d="M57.3861 97.4848C55.3867 97.4849 53.4373 96.86 51.8107 95.6973C50.1841 94.5347 48.9617 92.8926 48.3145 91.0008C47.6673 89.1091 47.6278 87.0623 48.2015 85.147C48.7751 83.2316 49.9332 81.5436 51.5137 80.319L51.8326 80.7331C50.3362 81.8911 49.2394 83.4881 48.6958 85.3005C48.1523 87.1128 48.1892 89.0498 48.8013 90.8402C49.4135 92.6305 50.5702 94.1846 52.1097 95.2848C53.6491 96.3849 55.494 96.9761 57.3861 96.9754V97.4848Z" fill="#0083AF"/>
<path d="M57.2624 98.9923C58.1681 98.9923 58.9023 98.258 58.9023 97.3523C58.9023 96.4466 58.1681 95.7123 57.2624 95.7123C56.3566 95.7123 55.6224 96.4466 55.6224 97.3523C55.6224 98.258 56.3566 98.9923 57.2624 98.9923Z" fill="#0083AF"/>
<path d="M88.8935 31.8034L89.8211 26.577C87.9112 26.0259 86.2651 24.8026 85.1863 23.1329C84.1075 21.4633 83.669 19.4598 83.9515 17.4921C84.2341 15.5245 85.2186 13.7253 86.7236 12.4267C88.2286 11.128 90.1525 10.4173 92.1403 10.4259H105.041C107.193 10.4741 109.24 11.3629 110.745 12.902C112.25 14.4412 113.093 16.5083 113.093 18.6609C113.093 20.8135 112.25 22.8806 110.745 24.4197C109.24 25.9588 107.193 26.8477 105.041 26.8959H95.9047L88.8935 31.8034ZM92.1403 10.9559C90.264 10.9559 88.4519 11.6392 87.0428 12.8782C85.6337 14.1172 84.7241 15.827 84.4841 17.6878C84.2441 19.5487 84.69 21.4334 85.7386 22.9893C86.7871 24.5453 88.3665 25.6661 90.1814 26.1422L90.4134 26.2002L89.6224 30.6645L95.7432 26.3907H105.041C107.056 26.344 108.974 25.5104 110.383 24.0682C111.792 22.626 112.581 20.6897 112.581 18.6733C112.581 16.657 111.792 14.7206 110.383 13.2784C108.974 11.8362 107.056 11.0026 105.041 10.9559H92.1403Z" fill="#0083AF"/>
<path d="M140.726 35.2034C140.821 34.8307 142.49 33.961 144.603 32.8345C145.812 32.1926 147.162 31.4803 148.578 30.6811H134.651C135.856 32.466 136.771 33.845 136.684 34.1929C134.473 43.0388 128.402 45.8383 123.498 48.0912C119.928 49.7477 116.843 51.1516 116.044 54.4067L114.992 58.6102L148.384 66.9591L149.435 62.7515C150.264 59.5006 148.193 56.7963 145.816 53.6696C142.586 49.3833 138.519 44.0368 140.726 35.2034Z" fill="#C4D7FF"/>
<path d="M148.529 67.1786L114.765 58.7427L117.075 49.4786C118.463 43.9292 127.396 39.2164 132.73 36.4003C134.527 35.4519 136.382 34.4745 136.511 34.1474C136.552 33.8078 135.372 32.0767 134.233 30.3871C130.849 25.4009 125.192 17.0354 126.567 11.486L128.882 2.20947L162.647 10.6578L160.332 19.9219C158.948 25.4713 150.016 30.1841 144.677 32.9961C142.884 33.9445 141.025 34.9259 140.9 35.2531C140.859 35.5927 142.039 37.3238 143.178 39.0093C146.562 44.0037 152.227 52.3651 150.844 57.9103L148.529 67.1786ZM115.398 58.3659L148.16 66.5491L150.347 57.7861C151.68 52.4645 146.094 44.2232 142.756 39.2992C140.992 36.6984 140.271 35.6217 140.408 35.1206C140.544 34.6195 141.65 34.0066 144.445 32.5406C149.705 29.7659 158.526 25.1193 159.839 19.7977L162.03 11.0346L129.259 2.84724L127.068 11.6103C125.739 16.936 131.326 25.1731 134.659 30.0972C136.424 32.6979 137.144 33.7747 137.012 34.2758C136.879 34.7769 135.769 35.3898 132.974 36.86C127.714 39.6346 118.893 44.2771 117.581 49.6028L115.398 58.3659Z" fill="#0083AF"/>
<path d="M135.765 29.4925C132.999 25.4009 127.263 16.8739 128.621 11.3577L129.122 11.4819C127.801 16.7745 133.471 25.169 136.196 29.2026L135.765 29.4925Z" fill="#0083AF"/>
<path d="M164.106 8.91937L128.411 0L127.281 4.52403L162.975 13.4434L164.106 8.91937Z" fill="#FFCD32"/>
<path d="M150.16 64.7196L114.466 55.8003L113.336 60.3243L149.03 69.2437L150.16 64.7196Z" fill="#FFCD32"/>
<path d="M156.6 65.257C146.868 65.257 140.035 59.8981 136.784 57.3388C136.266 56.9246 135.86 56.614 135.562 56.4111C135.359 56.2786 135.409 56.1337 135.666 55.6905L132.506 53.6986C131.707 53.2099 129.86 51.9799 130.253 51.193C130.323 51.0608 130.429 50.9514 130.559 50.8783C130.145 50.4932 129.756 49.9589 130.058 49.5075C130.159 49.3609 130.304 49.2505 130.472 49.1928C129.93 48.6213 130.004 48.2196 130.166 47.9835C130.327 47.7475 130.663 47.528 131.408 47.8137C131.413 47.641 131.466 47.473 131.562 47.3292C131.613 47.2537 131.68 47.1899 131.758 47.142C131.835 47.0942 131.922 47.0634 132.013 47.0517C132.622 46.9565 133.67 47.5694 134.353 48.0456C134.245 47.5777 134.245 47.031 134.692 46.7494C134.933 46.6003 135.554 46.211 138.788 50.7913C139.202 50.2116 139.202 50.2033 139.327 50.1826C139.396 50.1703 139.467 50.1852 139.525 50.224C148.131 56.2538 154.364 59.0864 162.651 56.788C162.683 56.7779 162.717 56.7746 162.751 56.7782C162.785 56.7818 162.818 56.7922 162.848 56.8089C162.878 56.8255 162.904 56.848 162.925 56.875C162.946 56.902 162.961 56.933 162.969 56.9661C162.987 57.0319 162.979 57.1022 162.945 57.1619C162.912 57.2215 162.857 57.2657 162.791 57.2849C154.368 59.6206 148.056 56.8087 139.422 50.7831C139.347 50.8949 139.215 51.0771 139.008 51.3918C138.984 51.4275 138.952 51.4569 138.915 51.4771C138.877 51.4973 138.835 51.5079 138.792 51.5078C138.751 51.5077 138.71 51.4974 138.673 51.478C138.636 51.4585 138.605 51.4303 138.581 51.396C136.651 48.6337 135.297 47.1967 134.949 47.1967C134.634 47.4037 134.928 48.261 135.127 48.6461C135.154 48.6989 135.162 48.7592 135.15 48.8172C135.138 48.8751 135.107 48.9273 135.061 48.965C135.015 49.002 134.958 49.0222 134.9 49.0222C134.841 49.0222 134.784 49.002 134.738 48.965C133.997 48.3811 132.626 47.4783 132.104 47.5652C132.03 47.5652 132.009 47.6025 132.001 47.6149C131.942 47.7046 131.921 47.8132 131.941 47.9182C131.961 48.0232 132.021 48.1163 132.108 48.1782C132.145 48.1922 132.179 48.2145 132.206 48.2435C132.234 48.2724 132.254 48.3072 132.266 48.3452C132.277 48.3832 132.28 48.4234 132.274 48.4627C132.268 48.502 132.253 48.5394 132.23 48.5719C132.207 48.6045 132.177 48.6315 132.142 48.6507C132.108 48.6699 132.069 48.6809 132.029 48.6829C131.989 48.6849 131.95 48.6777 131.913 48.662C131.877 48.6463 131.844 48.6225 131.818 48.5923V48.5923C131.404 48.3231 130.742 48.0456 130.597 48.261C130.452 48.4763 130.742 48.7083 130.853 48.8284C131.01 48.9834 131.182 49.1221 131.367 49.2425C131.421 49.2782 131.46 49.333 131.475 49.396C131.49 49.459 131.481 49.5255 131.45 49.5821C131.419 49.6382 131.369 49.681 131.308 49.7024C131.248 49.7237 131.182 49.7222 131.123 49.698C131.123 49.698 130.708 49.5282 130.518 49.785C130.394 49.9714 130.932 50.5511 131.487 50.9197C131.524 50.9337 131.558 50.9561 131.585 50.985C131.612 51.014 131.633 51.0488 131.644 51.0868C131.656 51.1248 131.659 51.165 131.653 51.2043C131.647 51.2436 131.632 51.2809 131.609 51.3135C131.586 51.3461 131.556 51.373 131.521 51.3923C131.486 51.4115 131.448 51.4225 131.408 51.4245C131.368 51.4264 131.329 51.4193 131.292 51.4036C131.256 51.3879 131.223 51.364 131.197 51.3339V51.3339C131.154 51.305 131.105 51.2853 131.054 51.276C131.002 51.2668 130.95 51.2681 130.899 51.28C130.835 51.297 130.78 51.3386 130.746 51.396C130.646 51.5989 131.545 52.4603 132.816 53.2347L133.102 53.4252L136.183 55.3551C136.241 55.391 136.282 55.4478 136.298 55.5135C136.314 55.5792 136.304 55.6486 136.27 55.7071C136.167 55.881 136.105 56.0011 136.059 56.0757C136.349 56.2827 136.705 56.5644 137.136 56.9039C141.066 59.9851 150.264 67.2117 163.491 63.8241C163.558 63.8071 163.628 63.8171 163.687 63.8521C163.746 63.887 163.789 63.944 163.806 64.0105C163.823 64.0769 163.813 64.1474 163.778 64.2064C163.743 64.2654 163.686 64.3082 163.62 64.3252C161.329 64.9316 158.97 65.2447 156.6 65.257V65.257Z" fill="#0083AF"/>
<path d="M177.067 155.882L182.38 153.169L181.349 133.717L174.358 133.746L177.067 155.882Z" fill="#FFA87C"/>
<path d="M170.54 158.366H183.469L182.38 153.169L170.084 157.716L170.54 158.366Z" fill="#FFA87C"/>
<path d="M174.735 155.757C176.938 159.431 183.018 155.795 183.018 155.795L183.573 158.449H169.977L169.84 157.716L174.735 155.757Z" fill="#0083AF"/>
<path d="M170.034 143.015H186.521C186.521 143.015 187.225 72.0281 161.47 73.0261L170.034 143.015Z" fill="#C4D7FF"/>
<path d="M183.353 143.015H182.835C182.835 142.505 183.158 92.0762 167.955 77.3124C165.056 74.4839 161.71 73.1172 158.049 73.258V72.7404C161.859 72.5954 165.317 74.0076 168.332 76.9397C183.68 91.8857 183.357 142.518 183.353 143.015Z" fill="#0083AF"/>
<path d="M182.148 45.3165C182.02 46.6459 179.663 47.4203 179.249 48.5385C178.765 49.7809 179.941 51.8515 179.15 52.7958C178.321 53.8062 175.899 53.1768 174.781 53.8311C173.662 54.4854 173.211 56.7921 171.882 57.0613C170.552 57.3305 169.119 55.4048 167.74 55.2847C166.361 55.1646 164.535 56.7217 163.334 56.2206C162.133 55.7195 162.092 53.359 161.127 52.4934C160.162 51.6279 157.677 51.7811 157.047 50.6257C156.455 49.5407 158.012 47.7268 157.78 46.4264C157.569 45.2461 155.416 44.0327 155.548 42.6992C155.681 41.3657 158.033 40.5789 158.472 39.4441C158.952 38.2017 157.772 36.1311 158.563 35.1496C159.354 34.1681 161.827 34.7106 162.936 34.0314C164.046 33.3522 164.477 31.029 165.802 30.7184C167.127 30.4078 168.598 32.321 169.989 32.4577C171.381 32.5944 173.228 31.0414 174.433 31.5673C175.638 32.0933 175.63 34.4663 176.603 35.3566C177.576 36.247 180.048 36.1352 180.674 37.3072C181.262 38.4129 179.692 40.2061 179.924 41.5355C180.127 42.7531 182.281 43.9789 182.148 45.3165Z" fill="#0083AF"/>
<path d="M157.722 155.882L163.036 153.169L162 133.717L155.014 133.746L157.722 155.882Z" fill="#FFA87C"/>
<path d="M151.195 158.366H164.125L163.036 153.169L150.74 157.716L151.195 158.366Z" fill="#FFA87C"/>
<path d="M155.391 155.757C157.594 159.431 163.674 155.795 163.674 155.795L164.229 158.449H150.633L150.492 157.716L155.391 155.757Z" fill="#0083AF"/>
<path d="M166.883 143.015H150.396C150.396 143.015 139.215 73.0013 163.214 73.0013L166.883 143.015Z" fill="#C4D7FF"/>
<path d="M166.556 142.969L163.785 88.8211L160.435 87.4586L160.63 86.9824L164.286 88.4691L164.295 88.6306L167.069 142.94L166.556 142.969Z" fill="#0083AF"/>
<path d="M145.994 80.9444C149.937 64.7311 157.287 53.0111 168.042 54.7629C179.282 56.5934 182.048 69.9616 180.644 86.5848L145.994 80.9444Z" fill="white"/>
<path d="M136.846 51.0705L136.114 51.8026L138.457 54.1453L139.189 53.4132L136.846 51.0705Z" fill="#FFCD32"/>
<path d="M147.147 51.0652L146.415 51.7973L148.757 54.14L149.49 53.4079L147.147 51.0652Z" fill="#FFCD32"/>
<path d="M144.825 45.528L142.482 47.8707L143.214 48.6027L145.557 46.2601L144.825 45.528Z" fill="#FFCD32"/>
<path d="M136.842 62.1607L136.11 62.8927L138.453 65.2354L139.185 64.5033L136.842 62.1607Z" fill="#FFCD32"/>
<path d="M147.143 62.1512L146.411 62.8833L148.753 65.226L149.485 64.4939L147.143 62.1512Z" fill="#FFCD32"/>
<path d="M157.448 62.1501L156.715 62.8821L159.058 65.2248L159.79 64.4927L157.448 62.1501Z" fill="#FFCD32"/>
<path d="M167.756 62.1696L167.024 62.9017L169.367 65.2444L170.099 64.5123L167.756 62.1696Z" fill="#FFCD32"/>
<path d="M178.062 62.1684L177.329 62.9005L179.672 65.2432L180.404 64.5111L178.062 62.1684Z" fill="#FFCD32"/>
<path d="M175.738 56.6176L173.395 58.9603L174.128 59.6923L176.47 57.3497L175.738 56.6176Z" fill="#FFCD32"/>
<path d="M165.433 56.6187L163.091 58.9614L163.823 59.6935L166.165 57.3508L165.433 56.6187Z" fill="#FFCD32"/>
<path d="M155.128 56.6116L152.786 58.9543L153.518 59.6864L155.86 57.3437L155.128 56.6116Z" fill="#FFCD32"/>
<path d="M144.823 56.6128L142.481 58.9554L143.213 59.6875L145.556 57.3448L144.823 56.6128Z" fill="#FFCD32"/>
<path d="M149.036 74.6805L148.304 75.4126L150.647 77.7553L151.379 77.0232L149.036 74.6805Z" fill="#FFCD32"/>
<path d="M157.45 73.2431L156.718 73.9752L159.061 76.3179L159.793 75.5858L157.45 73.2431Z" fill="#FFCD32"/>
<path d="M167.759 73.2585L167.027 73.9906L169.37 76.3333L170.102 75.6012L167.759 73.2585Z" fill="#FFCD32"/>
<path d="M178.064 73.2615L177.332 73.9936L179.674 76.3363L180.406 75.6042L178.064 73.2615Z" fill="#FFCD32"/>
<path d="M186.038 67.7024L183.696 70.0451L184.428 70.7772L186.77 68.4345L186.038 67.7024Z" fill="#FFCD32"/>
<path d="M175.733 67.7036L173.391 70.0463L174.123 70.7784L176.465 68.4357L175.733 67.7036Z" fill="#FFCD32"/>
<path d="M165.429 67.7048L163.086 70.0475L163.818 70.7795L166.161 68.4369L165.429 67.7048Z" fill="#FFCD32"/>
<path d="M155.124 67.6976L152.781 70.0403L153.514 70.7724L155.856 68.4297L155.124 67.6976Z" fill="#FFCD32"/>
<path d="M178.062 84.3422L177.33 85.0743L179.673 87.417L180.405 86.6849L178.062 84.3422Z" fill="#FFCD32"/>
<path d="M186.041 78.7996L183.698 81.1423L184.43 81.8744L186.773 79.5317L186.041 78.7996Z" fill="#FFCD32"/>
<path d="M175.737 78.8008L173.394 81.1435L174.126 81.8756L176.469 79.5329L175.737 78.8008Z" fill="#FFCD32"/>
<path d="M165.431 78.7979L163.088 81.1405L163.821 81.8726L166.163 79.53L165.431 78.7979Z" fill="#FFCD32"/>
<path d="M155.127 78.7949L152.784 81.1375L153.516 81.8696L155.859 79.5269L155.127 78.7949Z" fill="#FFCD32"/>
<path d="M144.826 78.796L142.483 81.1387L143.215 81.8708L145.558 79.5281L144.826 78.796Z" fill="#FFCD32"/>
<path d="M180.877 86.8872L145.676 81.1514L145.742 80.8822C150.272 62.267 158.203 52.8951 168.084 54.5061C173.468 55.3841 177.249 58.9291 179.328 65.0458C181.134 70.3508 181.664 77.6023 180.902 86.6097L180.877 86.8872ZM146.313 80.7331L180.409 86.2784C181.129 77.4739 180.599 70.384 178.839 65.2032C176.827 59.2811 173.178 55.8521 168.001 55.0114C155.196 52.9324 148.935 70.1024 146.313 80.7331Z" fill="#0083AF"/>
<path d="M166.527 57.3844C166.239 57.332 165.964 57.2234 165.718 57.0647C165.472 56.9061 165.26 56.7005 165.093 56.4597C164.926 56.219 164.809 55.9478 164.747 55.6616C164.686 55.3754 164.681 55.0799 164.734 54.7919L164.895 53.4832L166.183 46.8571L170.565 47.6564L169.119 55.5829C169.068 55.8717 168.96 56.1474 168.802 56.3944C168.643 56.6413 168.438 56.8546 168.197 57.022C167.956 57.1894 167.685 57.3075 167.398 57.3697C167.111 57.4319 166.815 57.4369 166.527 57.3844V57.3844Z" fill="#FFA87C"/>
<path d="M163.943 54.3778L171.215 51.0606L165.84 46.2359L163.943 54.3778Z" fill="#0083AF"/>
<path d="M164.713 52.4396C160.986 51.6113 160.091 47.47 161.218 43.5275C162.576 38.7442 166.158 35.2075 170.917 37.1912C179.593 40.8066 173.911 54.4481 164.713 52.4396Z" fill="#FFA87C"/>
<path d="M168.772 45.0142C168.731 45.1277 168.648 45.2206 168.539 45.2726C168.43 45.3246 168.305 45.3315 168.192 45.2917C168.108 45.2615 168.035 45.2072 167.982 45.1357C167.929 45.0642 167.898 44.9786 167.894 44.8897C167.889 44.8008 167.911 44.7125 167.957 44.636C168.002 44.5596 168.07 44.4983 168.15 44.4598C168.23 44.4214 168.32 44.4076 168.408 44.4201C168.496 44.4326 168.579 44.4709 168.645 44.5301C168.712 44.5894 168.759 44.6669 168.782 44.7531C168.804 44.8392 168.801 44.9301 168.772 45.0142Z" fill="#0083AF"/>
<path d="M164.121 43.8463C164.081 43.9595 163.997 44.052 163.889 44.1037C163.781 44.1553 163.656 44.1618 163.543 44.1218C163.43 44.0817 163.337 43.9983 163.286 43.8899C163.234 43.7816 163.228 43.6572 163.268 43.544C163.287 43.488 163.318 43.4365 163.358 43.3923C163.398 43.3481 163.446 43.3123 163.499 43.2867C163.553 43.2611 163.611 43.2464 163.671 43.2433C163.73 43.2402 163.789 43.2488 163.845 43.2686C163.901 43.2885 163.953 43.3192 163.997 43.359C164.041 43.3987 164.077 43.4468 164.103 43.5005C164.128 43.5541 164.143 43.6123 164.146 43.6716C164.149 43.731 164.141 43.7903 164.121 43.8463V43.8463Z" fill="#0083AF"/>
<path d="M169.624 44.5628C169.567 44.3168 169.455 44.087 169.296 43.891C169.136 43.6951 168.934 43.5381 168.705 43.4322C168.507 43.3627 168.296 43.3426 168.089 43.3736C167.881 43.4046 167.685 43.4859 167.516 43.6103L167.235 43.1755C167.472 43.0064 167.747 42.8974 168.035 42.8578C168.324 42.8181 168.617 42.8489 168.891 42.9477C169.2 43.08 169.474 43.2831 169.69 43.5407C169.905 43.7983 170.058 44.103 170.134 44.4303L169.624 44.5628Z" fill="#0083AF"/>
<path d="M165.649 48.1782H165.607C165.268 48.1745 164.934 48.0987 164.626 47.956C164.318 47.8132 164.044 47.6066 163.822 47.3499L164.212 47.0062C164.385 47.2096 164.6 47.3732 164.842 47.4861C165.085 47.599 165.348 47.6585 165.616 47.6605H165.649C165.954 47.6582 166.256 47.5943 166.537 47.4726C166.817 47.351 167.07 47.174 167.28 46.9524L167.657 47.3085C167.398 47.5802 167.086 47.7971 166.741 47.9465C166.396 48.0958 166.025 48.1746 165.649 48.1782Z" fill="#0083AF"/>
<path d="M164.68 46.5217L163.475 46.1075L164.692 42.9974C164.659 42.8329 164.585 42.6794 164.477 42.5507C164.369 42.422 164.231 42.3222 164.075 42.2602C163.855 42.2132 163.626 42.2211 163.41 42.2832C163.193 42.3453 162.995 42.4597 162.833 42.6164L162.502 42.2023C162.728 41.9879 163.005 41.8341 163.307 41.7552C163.609 41.6763 163.926 41.6748 164.229 41.7508C164.48 41.846 164.703 42.0048 164.875 42.2116C165.047 42.4185 165.162 42.6664 165.21 42.9311L165.231 43.0098L164.15 45.7845L164.85 46.033L164.68 46.5217Z" fill="#0083AF"/>
<path d="M176.905 38.6863C175.58 35.4063 167.02 34.0977 164.088 35.3401C160.563 36.7937 161.516 43.4488 167.533 38.972C167.434 42.3513 170.776 44.6125 173.41 43.6062C168.279 51.9675 174.698 50.7417 175.48 48.9236C176.263 47.1056 178.234 41.9662 176.905 38.6863Z" fill="#0083AF"/>
<path d="M151.182 79.0426L151.101 79.554L169.346 82.4306L169.427 81.9193L151.182 79.0426Z" fill="#0083AF"/>
<path d="M136.345 45.2793C136.403 45.2277 136.47 45.1884 136.544 45.1637C136.618 45.1391 136.696 45.1296 136.773 45.1358C136.85 45.1419 136.926 45.1637 136.994 45.1998C137.063 45.2358 137.124 45.2854 137.173 45.3455C137.173 45.3455 136.084 44.0369 136.589 43.6227C137.003 43.279 137.521 43.6973 137.521 43.6973C137.521 43.6973 136.577 42.5874 137.078 42.1567C137.579 41.726 138.531 42.8359 138.531 42.8359C138.474 42.7698 138.43 42.6931 138.403 42.61C138.376 42.527 138.365 42.4394 138.372 42.3523C138.379 42.2652 138.404 42.1803 138.444 42.1026C138.484 42.025 138.539 41.9561 138.606 41.8999C139.31 41.2994 141.252 43.9706 141.252 43.9706C141.252 43.9706 140.933 42.4466 141.666 42.2271C142.494 41.9828 144.428 47.7102 144.428 47.7102C144.507 48.0291 141.173 51.2014 140.855 51.28L138.055 48.1782L137.844 47.9256C137.844 47.9256 135.848 45.8093 136.345 45.2793Z" fill="#FFA87C"/>
<path d="M138.552 42.4444L138.158 42.7804L140.223 45.2L140.616 44.864L138.552 42.4444Z" fill="#0083AF"/>
<path d="M137.543 43.3152L137.15 43.6511L139.213 46.071L139.607 45.7351L137.543 43.3152Z" fill="#0083AF"/>
<path d="M137.226 44.9853L136.832 45.3212L138.208 46.9345L138.601 46.5986L137.226 44.9853Z" fill="#0083AF"/>
<path d="M170.2 59.1071C158.377 60.863 152.355 55.6201 145.124 46.7991C145.05 46.708 139.977 51.2883 140.051 51.3794C142.565 54.3197 152.318 73.0717 177.944 64.2714" fill="white"/>
<path d="M136.846 51.0705L136.114 51.8026L138.457 54.1453L139.189 53.4132L136.846 51.0705Z" fill="#FFCD32"/>
<path d="M147.147 51.0652L146.415 51.7973L148.757 54.14L149.49 53.4079L147.147 51.0652Z" fill="#FFCD32"/>
<path d="M144.825 45.528L142.482 47.8707L143.214 48.6027L145.557 46.2601L144.825 45.528Z" fill="#FFCD32"/>
<path d="M136.842 62.1607L136.11 62.8927L138.453 65.2354L139.185 64.5033L136.842 62.1607Z" fill="#FFCD32"/>
<path d="M147.143 62.1512L146.411 62.8833L148.753 65.226L149.485 64.4939L147.143 62.1512Z" fill="#FFCD32"/>
<path d="M157.448 62.1501L156.715 62.8821L159.058 65.2248L159.79 64.4927L157.448 62.1501Z" fill="#FFCD32"/>
<path d="M167.756 62.1696L167.024 62.9017L169.367 65.2444L170.099 64.5123L167.756 62.1696Z" fill="#FFCD32"/>
<path d="M178.062 62.1684L177.329 62.9005L179.672 65.2432L180.404 64.5111L178.062 62.1684Z" fill="#FFCD32"/>
<path d="M175.738 56.6176L173.395 58.9603L174.128 59.6923L176.47 57.3497L175.738 56.6176Z" fill="#FFCD32"/>
<path d="M165.433 56.6187L163.091 58.9614L163.823 59.6935L166.165 57.3508L165.433 56.6187Z" fill="#FFCD32"/>
<path d="M155.128 56.6116L152.786 58.9543L153.518 59.6864L155.86 57.3437L155.128 56.6116Z" fill="#FFCD32"/>
<path d="M144.823 56.6128L142.481 58.9554L143.213 59.6875L145.556 57.3448L144.823 56.6128Z" fill="#FFCD32"/>
<path d="M149.036 74.6805L148.304 75.4126L150.647 77.7553L151.379 77.0232L149.036 74.6805Z" fill="#FFCD32"/>
<path d="M157.45 73.2431L156.718 73.9752L159.061 76.3179L159.793 75.5858L157.45 73.2431Z" fill="#FFCD32"/>
<path d="M167.759 73.2585L167.027 73.9906L169.37 76.3333L170.102 75.6012L167.759 73.2585Z" fill="#FFCD32"/>
<path d="M178.064 73.2615L177.332 73.9936L179.674 76.3363L180.406 75.6042L178.064 73.2615Z" fill="#FFCD32"/>
<path d="M186.038 67.7024L183.696 70.0451L184.428 70.7772L186.77 68.4345L186.038 67.7024Z" fill="#FFCD32"/>
<path d="M175.733 67.7036L173.391 70.0463L174.123 70.7784L176.465 68.4357L175.733 67.7036Z" fill="#FFCD32"/>
<path d="M165.429 67.7048L163.086 70.0475L163.818 70.7795L166.161 68.4369L165.429 67.7048Z" fill="#FFCD32"/>
<path d="M155.124 67.6976L152.781 70.0403L153.514 70.7724L155.856 68.4297L155.124 67.6976Z" fill="#FFCD32"/>
<path d="M178.062 84.3422L177.33 85.0743L179.673 87.417L180.405 86.6849L178.062 84.3422Z" fill="#FFCD32"/>
<path d="M186.041 78.7996L183.698 81.1423L184.43 81.8744L186.773 79.5317L186.041 78.7996Z" fill="#FFCD32"/>
<path d="M175.737 78.8008L173.394 81.1435L174.126 81.8756L176.469 79.5329L175.737 78.8008Z" fill="#FFCD32"/>
<path d="M165.431 78.7979L163.088 81.1405L163.821 81.8726L166.163 79.53L165.431 78.7979Z" fill="#FFCD32"/>
<path d="M155.127 78.7949L152.784 81.1375L153.516 81.8696L155.859 79.5269L155.127 78.7949Z" fill="#FFCD32"/>
<path d="M144.826 78.796L142.483 81.1387L143.215 81.8708L145.558 79.5281L144.826 78.796Z" fill="#FFCD32"/>
<path d="M165.442 66.7479C151.018 66.7479 143.621 56.643 140.784 52.7709C140.395 52.2408 140.089 51.8225 139.857 51.5285L139.757 51.4125L139.807 51.2635C139.919 50.957 144.777 46.5672 145.075 46.5216L145.224 46.4926L145.323 46.6127C153.034 56.0177 158.99 60.4862 170.171 58.8297L170.246 59.3432C158.899 61.0246 152.852 56.5519 145.083 47.1221C144.288 47.7516 141.062 50.6671 140.395 51.3587C140.615 51.632 140.884 52.0006 141.223 52.4437C144.777 57.2891 155.577 72.0405 178.615 63.6874L178.789 64.172C173.774 65.9859 169.351 66.7479 165.442 66.7479Z" fill="#0083AF"/>
<path d="M286 158.313H0V158.83H286V158.313Z" fill="#0083AF"/>
<path d="M261.798 164.781H24.202V165.299H261.798V164.781Z" fill="#0083AF"/>
</svg>
